<svg xmlns="http://www.w3.org/2000/svg" version="1.1" xmlns:xlink="http://www.w3.org/1999/xlink" xmlns:svgjs="http://svgjs.dev/svgjs" viewBox="0 0 800 800"><defs><linearGradient gradientTransform="rotate(270)" x1="50%" y1="0%" x2="50%" y2="100%" id="sssquiggly-grad"><stop stop-color="hsl(265, 55%, 30%)" stop-opacity="1" offset="0%"></stop><stop stop-color="hsl(265, 55%, 60%)" stop-opacity="1" offset="100%"></stop></linearGradient></defs><g stroke-width="2" stroke="url(#sssquiggly-grad)" fill="none" stroke-linecap="round" transform="matrix(1,0,0,1,-5,-1034.8439445495605)"><path d="M10,10C31.726190476190478,10.833333333333334,68.75,21.083333333333336,114.28571428571429,14C159.82142857142858,6.916666666666666,180.95238095238096,-27.958333333333332,228.57142857142858,-24C276.1904761904762,-20.041666666666668,295.2380952380953,28.416666666666668,342.8571428571429,33C390.4761904761905,37.583333333333336,409.5238095238095,-3.6666666666666665,457.14285714285717,-2C504.7619047619048,-0.3333333333333335,523.8095238095239,40.375,571.4285714285714,41C619.047619047619,41.625,638.0952380952382,0.375,685.7142857142858,1C733.3333333333334,1.625,776.1904761904761,35.041666666666664,800,44"></path><path d="M10,10C31.726190476190478,10.833333333333334,68.75,21.083333333333336,114.28571428571429,14C159.82142857142858,6.916666666666666,180.95238095238096,-27.958333333333332,228.57142857142858,-24C276.1904761904762,-20.041666666666668,295.2380952380953,28.416666666666668,342.8571428571429,33C390.4761904761905,37.583333333333336,409.5238095238095,-3.6666666666666665,457.14285714285717,-2C504.7619047619048,-0.3333333333333335,523.8095238095239,40.375,571.4285714285714,41C619.047619047619,41.625,638.0952380952382,0.375,685.7142857142858,1C733.3333333333334,1.625,776.1904761904761,35.041666666666664,800,44" transform="matrix(1,0,0,1,0,2850)"></path><path d="M10,10C31.726190476190478,10.833333333333334,68.75,21.083333333333336,114.28571428571429,14C159.82142857142858,6.916666666666666,180.95238095238096,-27.958333333333332,228.57142857142858,-24C276.1904761904762,-20.041666666666668,295.2380952380953,28.416666666666668,342.8571428571429,33C390.4761904761905,37.583333333333336,409.5238095238095,-3.6666666666666665,457.14285714285717,-2C504.7619047619048,-0.3333333333333335,523.8095238095239,40.375,571.4285714285714,41C619.047619047619,41.625,638.0952380952382,0.375,685.7142857142858,1C733.3333333333334,1.625,776.1904761904761,35.041666666666664,800,44" transform="matrix(1,0,0,1,0,2700)"></path><path d="M10,10C31.726190476190478,10.833333333333334,68.75,21.083333333333336,114.28571428571429,14C159.82142857142858,6.916666666666666,180.95238095238096,-27.958333333333332,228.57142857142858,-24C276.1904761904762,-20.041666666666668,295.2380952380953,28.416666666666668,342.8571428571429,33C390.4761904761905,37.583333333333336,409.5238095238095,-3.6666666666666665,457.14285714285717,-2C504.7619047619048,-0.3333333333333335,523.8095238095239,40.375,571.4285714285714,41C619.047619047619,41.625,638.0952380952382,0.375,685.7142857142858,1C733.3333333333334,1.625,776.1904761904761,35.041666666666664,800,44" transform="matrix(1,0,0,1,0,2550)"></path><path d="M10,10C31.726190476190478,10.833333333333334,68.75,21.083333333333336,114.28571428571429,14C159.82142857142858,6.916666666666666,180.95238095238096,-27.958333333333332,228.57142857142858,-24C276.1904761904762,-20.041666666666668,295.2380952380953,28.416666666666668,342.8571428571429,33C390.4761904761905,37.583333333333336,409.5238095238095,-3.6666666666666665,457.14285714285717,-2C504.7619047619048,-0.3333333333333335,523.8095238095239,40.375,571.4285714285714,41C619.047619047619,41.625,638.0952380952382,0.375,685.7142857142858,1C733.3333333333334,1.625,776.1904761904761,35.041666666666664,800,44" transform="matrix(1,0,0,1,0,2400)"></path><path d="M10,10C31.726190476190478,10.833333333333334,68.75,21.083333333333336,114.28571428571429,14C159.82142857142858,6.916666666666666,180.95238095238096,-27.958333333333332,228.57142857142858,-24C276.1904761904762,-20.041666666666668,295.2380952380953,28.416666666666668,342.8571428571429,33C390.4761904761905,37.583333333333336,409.5238095238095,-3.6666666666666665,457.14285714285717,-2C504.7619047619048,-0.3333333333333335,523.8095238095239,40.375,571.4285714285714,41C619.047619047619,41.625,638.0952380952382,0.375,685.7142857142858,1C733.3333333333334,1.625,776.1904761904761,35.041666666666664,800,44" transform="matrix(1,0,0,1,0,2250)"></path><path d="M10,10C31.726190476190478,10.833333333333334,68.75,21.083333333333336,114.28571428571429,14C159.82142857142858,6.916666666666666,180.95238095238096,-27.958333333333332,228.57142857142858,-24C276.1904761904762,-20.041666666666668,295.2380952380953,28.416666666666668,342.8571428571429,33C390.4761904761905,37.583333333333336,409.5238095238095,-3.6666666666666665,457.14285714285717,-2C504.7619047619048,-0.3333333333333335,523.8095238095239,40.375,571.4285714285714,41C619.047619047619,41.625,638.0952380952382,0.375,685.7142857142858,1C733.3333333333334,1.625,776.1904761904761,35.041666666666664,800,44" transform="matrix(1,0,0,1,0,2100)"></path><path d="M10,10C31.726190476190478,10.833333333333334,68.75,21.083333333333336,114.28571428571429,14C159.82142857142858,6.916666666666666,180.95238095238096,-27.958333333333332,228.57142857142858,-24C276.1904761904762,-20.041666666666668,295.2380952380953,28.416666666666668,342.8571428571429,33C390.4761904761905,37.583333333333336,409.5238095238095,-3.6666666666666665,457.14285714285717,-2C504.7619047619048,-0.3333333333333335,523.8095238095239,40.375,571.4285714285714,41C619.047619047619,41.625,638.0952380952382,0.375,685.7142857142858,1C733.3333333333334,1.625,776.1904761904761,35.041666666666664,800,44" transform="matrix(1,0,0,1,0,1950)"></path><path d="M10,10C31.726190476190478,10.833333333333334,68.75,21.083333333333336,114.28571428571429,14C159.82142857142858,6.916666666666666,180.95238095238096,-27.958333333333332,228.57142857142858,-24C276.1904761904762,-20.041666666666668,295.2380952380953,28.416666666666668,342.8571428571429,33C390.4761904761905,37.583333333333336,409.5238095238095,-3.6666666666666665,457.14285714285717,-2C504.7619047619048,-0.3333333333333335,523.8095238095239,40.375,571.4285714285714,41C619.047619047619,41.625,638.0952380952382,0.375,685.7142857142858,1C733.3333333333334,1.625,776.1904761904761,35.041666666666664,800,44" transform="matrix(1,0,0,1,0,1800)"></path><path d="M10,10C31.726190476190478,10.833333333333334,68.75,21.083333333333336,114.28571428571429,14C159.82142857142858,6.916666666666666,180.95238095238096,-27.958333333333332,228.57142857142858,-24C276.1904761904762,-20.041666666666668,295.2380952380953,28.416666666666668,342.8571428571429,33C390.4761904761905,37.583333333333336,409.5238095238095,-3.6666666666666665,457.14285714285717,-2C504.7619047619048,-0.3333333333333335,523.8095238095239,40.375,571.4285714285714,41C619.047619047619,41.625,638.0952380952382,0.375,685.7142857142858,1C733.3333333333334,1.625,776.1904761904761,35.041666666666664,800,44" transform="matrix(1,0,0,1,0,1650)"></path><path d="M10,10C31.726190476190478,10.833333333333334,68.75,21.083333333333336,114.28571428571429,14C159.82142857142858,6.916666666666666,180.95238095238096,-27.958333333333332,228.57142857142858,-24C276.1904761904762,-20.041666666666668,295.2380952380953,28.416666666666668,342.8571428571429,33C390.4761904761905,37.583333333333336,409.5238095238095,-3.6666666666666665,457.14285714285717,-2C504.7619047619048,-0.3333333333333335,523.8095238095239,40.375,571.4285714285714,41C619.047619047619,41.625,638.0952380952382,0.375,685.7142857142858,1C733.3333333333334,1.625,776.1904761904761,35.041666666666664,800,44" transform="matrix(1,0,0,1,0,1500)"></path><path d="M10,10C31.726190476190478,10.833333333333334,68.75,21.083333333333336,114.28571428571429,14C159.82142857142858,6.916666666666666,180.95238095238096,-27.958333333333332,228.57142857142858,-24C276.1904761904762,-20.041666666666668,295.2380952380953,28.416666666666668,342.8571428571429,33C390.4761904761905,37.583333333333336,409.5238095238095,-3.6666666666666665,457.14285714285717,-2C504.7619047619048,-0.3333333333333335,523.8095238095239,40.375,571.4285714285714,41C619.047619047619,41.625,638.0952380952382,0.375,685.7142857142858,1C733.3333333333334,1.625,776.1904761904761,35.041666666666664,800,44" transform="matrix(1,0,0,1,0,1350)"></path><path d="M10,10C31.726190476190478,10.833333333333334,68.75,21.083333333333336,114.28571428571429,14C159.82142857142858,6.916666666666666,180.95238095238096,-27.958333333333332,228.57142857142858,-24C276.1904761904762,-20.041666666666668,295.2380952380953,28.416666666666668,342.8571428571429,33C390.4761904761905,37.583333333333336,409.5238095238095,-3.6666666666666665,457.14285714285717,-2C504.7619047619048,-0.3333333333333335,523.8095238095239,40.375,571.4285714285714,41C619.047619047619,41.625,638.0952380952382,0.375,685.7142857142858,1C733.3333333333334,1.625,776.1904761904761,35.041666666666664,800,44" transform="matrix(1,0,0,1,0,1200)"></path><path d="M10,10C31.726190476190478,10.833333333333334,68.75,21.083333333333336,114.28571428571429,14C159.82142857142858,6.916666666666666,180.95238095238096,-27.958333333333332,228.57142857142858,-24C276.1904761904762,-20.041666666666668,295.2380952380953,28.416666666666668,342.8571428571429,33C390.4761904761905,37.583333333333336,409.5238095238095,-3.6666666666666665,457.14285714285717,-2C504.7619047619048,-0.3333333333333335,523.8095238095239,40.375,571.4285714285714,41C619.047619047619,41.625,638.0952380952382,0.375,685.7142857142858,1C733.3333333333334,1.625,776.1904761904761,35.041666666666664,800,44" transform="matrix(1,0,0,1,0,1050)"></path><path d="M10,10C31.726190476190478,10.833333333333334,68.75,21.083333333333336,114.28571428571429,14C159.82142857142858,6.916666666666666,180.95238095238096,-27.958333333333332,228.57142857142858,-24C276.1904761904762,-20.041666666666668,295.2380952380953,28.416666666666668,342.8571428571429,33C390.4761904761905,37.583333333333336,409.5238095238095,-3.6666666666666665,457.14285714285717,-2C504.7619047619048,-0.3333333333333335,523.8095238095239,40.375,571.4285714285714,41C619.047619047619,41.625,638.0952380952382,0.375,685.7142857142858,1C733.3333333333334,1.625,776.1904761904761,35.041666666666664,800,44" transform="matrix(1,0,0,1,0,900)"></path><path d="M10,10C31.726190476190478,10.833333333333334,68.75,21.083333333333336,114.28571428571429,14C159.82142857142858,6.916666666666666,180.95238095238096,-27.958333333333332,228.57142857142858,-24C276.1904761904762,-20.041666666666668,295.2380952380953,28.416666666666668,342.8571428571429,33C390.4761904761905,37.583333333333336,409.5238095238095,-3.6666666666666665,457.14285714285717,-2C504.7619047619048,-0.3333333333333335,523.8095238095239,40.375,571.4285714285714,41C619.047619047619,41.625,638.0952380952382,0.375,685.7142857142858,1C733.3333333333334,1.625,776.1904761904761,35.041666666666664,800,44" transform="matrix(1,0,0,1,0,750)"></path><path d="M10,10C31.726190476190478,10.833333333333334,68.75,21.083333333333336,114.28571428571429,14C159.82142857142858,6.916666666666666,180.95238095238096,-27.958333333333332,228.57142857142858,-24C276.1904761904762,-20.041666666666668,295.2380952380953,28.416666666666668,342.8571428571429,33C390.4761904761905,37.583333333333336,409.5238095238095,-3.6666666666666665,457.14285714285717,-2C504.7619047619048,-0.3333333333333335,523.8095238095239,40.375,571.4285714285714,41C619.047619047619,41.625,638.0952380952382,0.375,685.7142857142858,1C733.3333333333334,1.625,776.1904761904761,35.041666666666664,800,44" transform="matrix(1,0,0,1,0,600)"></path><path d="M10,10C31.726190476190478,10.833333333333334,68.75,21.083333333333336,114.28571428571429,14C159.82142857142858,6.916666666666666,180.95238095238096,-27.958333333333332,228.57142857142858,-24C276.1904761904762,-20.041666666666668,295.2380952380953,28.416666666666668,342.8571428571429,33C390.4761904761905,37.583333333333336,409.5238095238095,-3.6666666666666665,457.14285714285717,-2C504.7619047619048,-0.3333333333333335,523.8095238095239,40.375,571.4285714285714,41C619.047619047619,41.625,638.0952380952382,0.375,685.7142857142858,1C733.3333333333334,1.625,776.1904761904761,35.041666666666664,800,44" transform="matrix(1,0,0,1,0,450)"></path><path d="M10,10C31.726190476190478,10.833333333333334,68.75,21.083333333333336,114.28571428571429,14C159.82142857142858,6.916666666666666,180.95238095238096,-27.958333333333332,228.57142857142858,-24C276.1904761904762,-20.041666666666668,295.2380952380953,28.416666666666668,342.8571428571429,33C390.4761904761905,37.583333333333336,409.5238095238095,-3.6666666666666665,457.14285714285717,-2C504.7619047619048,-0.3333333333333335,523.8095238095239,40.375,571.4285714285714,41C619.047619047619,41.625,638.0952380952382,0.375,685.7142857142858,1C733.3333333333334,1.625,776.1904761904761,35.041666666666664,800,44" transform="matrix(1,0,0,1,0,300)"></path><path d="M10,10C31.726190476190478,10.833333333333334,68.75,21.083333333333336,114.28571428571429,14C159.82142857142858,6.916666666666666,180.95238095238096,-27.958333333333332,228.57142857142858,-24C276.1904761904762,-20.041666666666668,295.2380952380953,28.416666666666668,342.8571428571429,33C390.4761904761905,37.583333333333336,409.5238095238095,-3.6666666666666665,457.14285714285717,-2C504.7619047619048,-0.3333333333333335,523.8095238095239,40.375,571.4285714285714,41C619.047619047619,41.625,638.0952380952382,0.375,685.7142857142858,1C733.3333333333334,1.625,776.1904761904761,35.041666666666664,800,44" transform="matrix(1,0,0,1,0,150)"></path></g></svg>