<?xml version="1.0" encoding="utf-8"?>
<svg version="1.1" xmlns="http://www.w3.org/2000/svg" xmlns:xlink="http://www.w3.org/1999/xlink" x="0px" y="0px"
	 viewBox="0 0 4087 3126" style="enable-background:new 0 0 4087 3126;" xml:space="preserve">
<style type="text/css">
	.st0{fill:none;stroke:#FFFFFF;stroke-width:183.6;stroke-linecap:round;stroke-linejoin:round;stroke-miterlimit:10;}
	.st1{fill:#FFFFFF;}
	.st2{fill:none;stroke:#000000;stroke-width:183.6;stroke-linecap:round;stroke-linejoin:round;stroke-miterlimit:10;}
</style>
<path class="st0" d="M250.45,1503.84c0,0,319.63,259.07,841.8,113.67c26.63-7.41,52.79,13.07,51.79,40.69
	c-4.28,118.68-6.39,399.89,54.31,629.56c11.4,43.12,74.02,38.94,79.81-5.28c49.63-379.48,199.79-1297.37,526.18-1659.7
	c27.07-30.05,76.62-7.19,70.86,32.85c-35.58,247.24-114.44,845.47-106.12,1238.21c1,47.11,67.79,55.32,80.12,9.84
	c68.77-253.62,191.28-659.9,326.44-896.13c22.86-39.96,84.09-17.04,75.34,28.17c-35.02,180.92-72.87,461.96-24.19,668.79
	c9.22,39.16,63.69,42.63,77.84,4.97c52.82-140.54,155.41-385.35,275.65-527.22c26.13-30.83,76.46-8.85,71.56,31.27
	c-18.02,147.61-29.68,401.02,79.01,517.12c158.4,169.2,701.52-58.81,720.6,35.38c2,9.88,0.27,20.09-4.85,28.78
	c-51.01,86.65-316.38,600.83-515.96-1.16"/>
</svg>
