<svg id="Layer_1" data-name="Layer 1" xmlns="http://www.w3.org/2000/svg" viewBox="0 0 4087 1951"><defs><style>.cls-1{fill:none;stroke:#f9f9f9;stroke-miterlimit:10;stroke-width:15px;}</style></defs><title>logo-svg-skeleton</title><path class="cls-1" d="M1406.23,1924.78c-60.26,0-112-39.49-127.63-98.57-27.92-105.63-46.23-231.67-54.42-374.6-4.63-80.74-5.34-154.67-4.54-214-105.93,23.85-211.14,34-313.62,30.2-99.85-3.71-197.27-20.61-289.54-50.22-66.41-21.31-128.6-48.59-184.84-81.06l-1.29-.75a71.12,71.12,0,0,1-19.53-106.31l25.73-31.75a72.35,72.35,0,0,1,91.8-17.48c34.69,19.61,86.28,44.63,152.47,65.13,173.12,53.62,360.12,53.17,555.8-1.32a132.59,132.59,0,0,1,168.16,132.44c-2,55.86-3.74,156.32,3.07,270.67,27.67-157.73,63.7-333.54,109.82-509.29,47.72-181.86,101-342.42,158.25-477.2,69.36-163.21,146.48-292.52,229.21-384.36A132.59,132.59,0,0,1,2135.06,183.7c-24,166.77-69.78,508.31-92.43,831.07q13.53-41.21,27.1-80.6C2136.48,740.53,2202.16,586.7,2265,477c16.76-29.29,43.28-50.87,74.69-60.76a134.27,134.27,0,0,1,153.47,57c17.38,28,23.41,61.76,17,94.93-31.6,163.24-46.88,312.08-45.44,436.36,12.23-27.34,25.29-55.42,39.07-83.54,58.54-119.5,117.6-214.74,175.52-283.08A132.57,132.57,0,0,1,2912,739.65c-26,213-5.49,378.75,54.9,443.25,17.8,19,56,30.9,109.49,34.4a94.89,94.89,0,0,0,14.89-.09,90.93,90.93,0,0,1,20.08.36,93.18,93.18,0,0,0,13.87.65c80-1.66,171-16.77,251.81-30.16,65.54-10.87,122.14-20.26,168.5-22.22,32.46-1.37,57.73,1,79.53,7.55,19.06,5.7,35.63,14.71,49.26,26.79a113,113,0,0,1,36.13,62.61,132.34,132.34,0,0,1-15.71,93.58c-2.24,3.81-5.18,9-8.58,14.91-23.31,40.78-66.69,116.69-123.57,183-76.56,89.26-155.64,134.38-235.38,134.38q-10.56,0-21.13-1.05c-64.05-6.4-121.87-41.28-171.86-103.66-37-46.13-70-107.39-100.21-186.19-88.57-10.34-154.79-39.87-201.15-89.39-34.71-37.07-61.94-85.23-80.94-143.14-15.08-46-25.35-99.24-30.52-158.35-2.88-32.95-4-66.21-4-98.6-68.09,121.24-124.54,259.9-157.83,348.48a131.75,131.75,0,0,1-123.86,85.91c-2.91,0-5.82-.09-8.75-.28a131.8,131.8,0,0,1-120.52-101.87c-25.75-109.42-29.65-235.87-22.23-360.19-75,200.2-138.5,418.93-177.39,562.36-16,58.79-68.06,97.91-127.42,97.92a137.69,137.69,0,0,1-16.63-1c-66.07-8.09-115-62.27-116.45-128.82-6.6-311.51,40.56-748.85,78.34-1042.49-84.43,152-162.31,360.57-229.38,616.2-81.07,308.94-130.16,619.1-157.08,824.89-8.32,63.65-58.92,111-123,115.11C1412.16,1924.68,1409.18,1924.78,1406.23,1924.78Zm1826.08-530.07c14.74,30.42,29.83,55.31,45.16,74.45,17.21,21.48,34.28,34.51,46.82,35.76,17.24,1.73,52.28-15.8,98.91-70.16,21-24.44,40.27-51.63,57-77.32-22.7,3.38-47.49,7.49-73.16,11.74C3351.89,1378.33,3292.29,1388.21,3232.31,1394.71Z"/></svg>