<svg id="Layer_1" data-name="Layer 1" xmlns="http://www.w3.org/2000/svg" viewBox="0 0 4087 1951"><defs><style>.cls-1,.cls-2{fill:none;stroke:#fff;stroke-miterlimit:10;}.cls-1{stroke-width:14px;}.cls-2{stroke-width:8.86px;}.cls-3{fill:#fff;}</style></defs><title>ui-06</title><rect class="cls-1" x="400" y="108" width="3297" height="1697" rx="212.81"/><path class="cls-1" d="M604.06,109h425.7A100.24,100.24,0,0,1,1130,209.24V1705.76A100.24,100.24,0,0,1,1029.76,1806H611.42A212.92,212.92,0,0,1,398.5,1593.08V314.56A205.56,205.56,0,0,1,604.06,109Z"/><rect class="cls-1" x="1314" y="278" width="1031" height="591" rx="55.25"/><rect class="cls-1" x="521" y="278" width="487" height="110.5" rx="55.25"/><rect class="cls-1" x="521" y="468" width="487" height="110.5" rx="55.25"/><rect class="cls-1" x="521" y="658" width="487" height="110.5" rx="55.25"/><rect class="cls-2" x="521" y="848" width="195" height="110.5" rx="55.25"/><rect class="cls-2" x="813" y="848" width="195" height="110.5" rx="55.25"/><rect class="cls-3" x="900" y="1674" width="108" height="27.5" rx="13.75"/><rect class="cls-3" x="776" y="1674" width="108" height="27.5" rx="13.75"/><rect class="cls-3" x="734" y="1632" width="274" height="27.5" rx="13.75"/><rect class="cls-1" x="2495" y="278" width="1031" height="591" rx="55.25"/><rect class="cls-1" x="1314" y="1041" width="1031" height="591" rx="55.25"/><rect class="cls-1" x="2495" y="1041" width="1031" height="591" rx="55.25"/><line class="cls-1" x1="1041" y1="168" x2="1077" y2="204"/><line class="cls-1" x1="1077" y1="168" x2="1041" y2="204"/><rect class="cls-3" x="1413.5" y="368" width="282.5" height="37" rx="18.5"/><rect class="cls-3" x="1716.5" y="368" width="194.5" height="37" rx="18.5"/><rect class="cls-3" x="1413.5" y="455.5" width="176.5" height="13.5" rx="6.75"/><rect class="cls-3" x="1607.5" y="455.5" width="176.5" height="13.5" rx="6.75"/><rect class="cls-3" x="1800.5" y="455.5" width="152.5" height="13.5" rx="6.27"/><rect class="cls-3" x="1413.5" y="482.5" width="282.5" height="13.5" rx="6.75"/><rect class="cls-3" x="1706.5" y="482.5" width="282.5" height="13.5" rx="6.75"/><rect class="cls-3" x="1413.5" y="509.5" width="76.5" height="13.5" rx="6.75"/><rect class="cls-3" x="1501.5" y="509.5" width="341.5" height="13.5" rx="6.75"/><rect class="cls-3" x="1413.5" y="536.5" width="282.5" height="13.5" rx="6.75"/><rect class="cls-3" x="1413.5" y="601" width="282.5" height="37" rx="18.5"/><rect class="cls-3" x="1716.5" y="601" width="194.5" height="37" rx="18.5"/><rect class="cls-3" x="1413.5" y="688.5" width="176.5" height="13.5" rx="6.75"/><rect class="cls-3" x="1607.5" y="688.5" width="176.5" height="13.5" rx="6.75"/><rect class="cls-3" x="1800.5" y="688.5" width="152.5" height="13.5" rx="6.27"/><rect class="cls-3" x="1413.5" y="715.5" width="282.5" height="13.5" rx="6.75"/><rect class="cls-3" x="1706.5" y="715.5" width="282.5" height="13.5" rx="6.75"/><rect class="cls-3" x="1413.5" y="742.5" width="76.5" height="13.5" rx="6.75"/><rect class="cls-3" x="1501.5" y="742.5" width="341.5" height="13.5" rx="6.75"/><rect class="cls-3" x="1413.5" y="769.5" width="282.5" height="13.5" rx="6.75"/><rect class="cls-3" x="2591.5" y="368" width="282.5" height="37" rx="18.5"/><rect class="cls-3" x="2894.5" y="368" width="194.5" height="37" rx="18.5"/><rect class="cls-3" x="2591.5" y="455.5" width="176.5" height="13.5" rx="6.75"/><rect class="cls-3" x="2785.5" y="455.5" width="176.5" height="13.5" rx="6.75"/><rect class="cls-3" x="2978.5" y="455.5" width="152.5" height="13.5" rx="6.27"/><rect class="cls-3" x="2591.5" y="482.5" width="282.5" height="13.5" rx="6.75"/><rect class="cls-3" x="2884.5" y="482.5" width="282.5" height="13.5" rx="6.75"/><rect class="cls-3" x="2591.5" y="509.5" width="76.5" height="13.5" rx="6.75"/><rect class="cls-3" x="2679.5" y="509.5" width="341.5" height="13.5" rx="6.75"/><rect class="cls-3" x="2591.5" y="536.5" width="282.5" height="13.5" rx="6.75"/><rect class="cls-3" x="2591.5" y="601" width="282.5" height="37" rx="18.5"/><rect class="cls-3" x="2894.5" y="601" width="194.5" height="37" rx="18.5"/><rect class="cls-3" x="2591.5" y="688.5" width="176.5" height="13.5" rx="6.75"/><rect class="cls-3" x="2785.5" y="688.5" width="176.5" height="13.5" rx="6.75"/><rect class="cls-3" x="2978.5" y="688.5" width="152.5" height="13.5" rx="6.27"/><rect class="cls-3" x="2591.5" y="715.5" width="282.5" height="13.5" rx="6.75"/><rect class="cls-3" x="2884.5" y="715.5" width="282.5" height="13.5" rx="6.75"/><rect class="cls-3" x="2591.5" y="742.5" width="76.5" height="13.5" rx="6.75"/><rect class="cls-3" x="2679.5" y="742.5" width="341.5" height="13.5" rx="6.75"/><rect class="cls-3" x="2591.5" y="769.5" width="282.5" height="13.5" rx="6.75"/><rect class="cls-3" x="2591.5" y="1129" width="282.5" height="37" rx="18.5"/><rect class="cls-3" x="2894.5" y="1129" width="194.5" height="37" rx="18.5"/><rect class="cls-3" x="2591.5" y="1216.5" width="176.5" height="13.5" rx="6.75"/><rect class="cls-3" x="2785.5" y="1216.5" width="176.5" height="13.5" rx="6.75"/><rect class="cls-3" x="2978.5" y="1216.5" width="152.5" height="13.5" rx="6.27"/><rect class="cls-3" x="2591.5" y="1243.5" width="282.5" height="13.5" rx="6.75"/><rect class="cls-3" x="2884.5" y="1243.5" width="282.5" height="13.5" rx="6.75"/><rect class="cls-3" x="2591.5" y="1270.5" width="76.5" height="13.5" rx="6.75"/><rect class="cls-3" x="2679.5" y="1270.5" width="341.5" height="13.5" rx="6.75"/><rect class="cls-3" x="2591.5" y="1297.5" width="282.5" height="13.5" rx="6.75"/><rect class="cls-3" x="2591.5" y="1362" width="282.5" height="37" rx="18.5"/><rect class="cls-3" x="2894.5" y="1362" width="194.5" height="37" rx="18.5"/><rect class="cls-3" x="2591.5" y="1449.5" width="176.5" height="13.5" rx="6.75"/><rect class="cls-3" x="2785.5" y="1449.5" width="176.5" height="13.5" rx="6.75"/><rect class="cls-3" x="2978.5" y="1449.5" width="152.5" height="13.5" rx="6.27"/><rect class="cls-3" x="2591.5" y="1476.5" width="282.5" height="13.5" rx="6.75"/><rect class="cls-3" x="2884.5" y="1476.5" width="282.5" height="13.5" rx="6.75"/><rect class="cls-3" x="2591.5" y="1503.5" width="76.5" height="13.5" rx="6.75"/><rect class="cls-3" x="2679.5" y="1503.5" width="341.5" height="13.5" rx="6.75"/><rect class="cls-3" x="2591.5" y="1530.5" width="282.5" height="13.5" rx="6.75"/><rect class="cls-3" x="1418.5" y="1129" width="282.5" height="37" rx="18.5"/><rect class="cls-3" x="1721.5" y="1129" width="194.5" height="37" rx="18.5"/><rect class="cls-3" x="1418.5" y="1216.5" width="176.5" height="13.5" rx="6.75"/><rect class="cls-3" x="1612.5" y="1216.5" width="176.5" height="13.5" rx="6.75"/><rect class="cls-3" x="1805.5" y="1216.5" width="152.5" height="13.5" rx="6.27"/><rect class="cls-3" x="1418.5" y="1243.5" width="282.5" height="13.5" rx="6.75"/><rect class="cls-3" x="1711.5" y="1243.5" width="282.5" height="13.5" rx="6.75"/><rect class="cls-3" x="1418.5" y="1270.5" width="76.5" height="13.5" rx="6.75"/><rect class="cls-3" x="1506.5" y="1270.5" width="341.5" height="13.5" rx="6.75"/><rect class="cls-3" x="1418.5" y="1297.5" width="282.5" height="13.5" rx="6.75"/><rect class="cls-3" x="1418.5" y="1362" width="282.5" height="37" rx="18.5"/><rect class="cls-3" x="1721.5" y="1362" width="194.5" height="37" rx="18.5"/><rect class="cls-3" x="1418.5" y="1449.5" width="176.5" height="13.5" rx="6.75"/><rect class="cls-3" x="1612.5" y="1449.5" width="176.5" height="13.5" rx="6.75"/><rect class="cls-3" x="1805.5" y="1449.5" width="152.5" height="13.5" rx="6.27"/><rect class="cls-3" x="1418.5" y="1476.5" width="282.5" height="13.5" rx="6.75"/><rect class="cls-3" x="1711.5" y="1476.5" width="282.5" height="13.5" rx="6.75"/><rect class="cls-3" x="1418.5" y="1503.5" width="76.5" height="13.5" rx="6.75"/><rect class="cls-3" x="1506.5" y="1503.5" width="341.5" height="13.5" rx="6.75"/><rect class="cls-3" x="1418.5" y="1530.5" width="282.5" height="13.5" rx="6.75"/></svg>